<svg width="24" height="4" viewBox="0 0 24 4" fill="none" xmlns="http://www.w3.org/2000/svg">
<path d="M3.72671 3.90072V2.577C3.72671 2.06946 3.41451 1.73861 2.87937 1.73861C2.61186 1.73861 2.322 1.82685 2.12131 2.11368C1.96531 1.87097 1.74238 1.73861 1.40794 1.73861C1.18491 1.73861 0.962078 1.80474 0.783633 2.04745V1.78273H0.31543V3.90072H0.783633V2.73137C0.783633 2.3564 0.98432 2.17981 1.29652 2.17981C1.60852 2.17981 1.76473 2.37841 1.76473 2.73137V3.90072H2.23293V2.73137C2.23293 2.3564 2.45576 2.17981 2.74562 2.17981C3.05782 2.17981 3.21382 2.37841 3.21382 2.73137V3.90072H3.72671ZM10.6605 1.78273H9.90252V1.14293H9.43432V1.78273H9.0107V2.20182H9.43422V3.17268C9.43422 3.6581 9.63491 3.94484 10.17 3.94484C10.3707 3.94484 10.5936 3.87871 10.7498 3.79047L10.6159 3.39328C10.4821 3.48152 10.3261 3.50363 10.2146 3.50363C9.99169 3.50363 9.90252 3.37127 9.90252 3.15057V2.20182H10.6605V1.78273ZM14.6291 1.73851C14.3616 1.73851 14.1833 1.87097 14.0718 2.04745V1.78273H13.6036V3.90072H14.0718V2.70936C14.0718 2.3564 14.2278 2.1578 14.5176 2.1578C14.6068 2.1578 14.7183 2.17991 14.8075 2.20192L14.9412 1.76072C14.8521 1.73861 14.7183 1.73861 14.6291 1.73861V1.73851ZM8.63167 1.95921C8.40864 1.80474 8.09654 1.73861 7.76209 1.73861C7.22706 1.73861 6.87037 2.00333 6.87037 2.42253C6.87037 2.77559 7.13789 2.97408 7.60609 3.04032L7.82902 3.06243C8.0743 3.10645 8.20805 3.17268 8.20805 3.28303C8.20805 3.4374 8.02971 3.54775 7.71751 3.54775C7.40541 3.54775 7.16013 3.4374 7.00403 3.32715L6.7811 3.68011C7.02637 3.8566 7.36082 3.94484 7.69516 3.94484C8.31947 3.94484 8.67626 3.65811 8.67626 3.26092C8.67626 2.88584 8.3864 2.68725 7.94044 2.62112L7.71751 2.59901C7.51682 2.5769 7.36082 2.53288 7.36082 2.40052C7.36082 2.24604 7.51682 2.1578 7.76209 2.1578C8.02971 2.1578 8.29723 2.26805 8.43098 2.33429L8.63167 1.95921ZM21.0726 1.73861C20.805 1.73861 20.6266 1.87097 20.5151 2.04745V1.78273H20.0469V3.90072H20.5151V2.70936C20.5151 2.3564 20.6712 2.1578 20.961 2.1578C21.0502 2.1578 21.1617 2.17991 21.2509 2.20192L21.3847 1.76072C21.2955 1.73861 21.1617 1.73861 21.0726 1.73861ZM15.0973 2.84172C15.0973 3.48152 15.5432 3.94484 16.2344 3.94484C16.5465 3.94484 16.7695 3.87871 16.9924 3.70222L16.7695 3.32715C16.5911 3.45951 16.4128 3.52564 16.2121 3.52564C15.8331 3.52564 15.5655 3.26092 15.5655 2.84172C15.5655 2.44464 15.8331 2.17981 16.2121 2.1578C16.4128 2.1578 16.5911 2.22393 16.7695 2.3564L16.9924 1.98132C16.7695 1.80474 16.5465 1.73861 16.2344 1.73861C15.5432 1.73861 15.0973 2.20192 15.0973 2.84172ZM19.4227 2.84172V1.78273H18.9545V2.04745C18.7984 1.84896 18.5755 1.73861 18.2856 1.73861C17.6836 1.73861 17.2154 2.20192 17.2154 2.84172C17.2154 3.48152 17.6836 3.94484 18.2856 3.94484C18.5977 3.94484 18.8207 3.83459 18.9545 3.63599V3.90072H19.4227V2.84172ZM17.7059 2.84172C17.7059 2.46665 17.9511 2.1578 18.3524 2.1578C18.7315 2.1578 18.9991 2.44464 18.9991 2.84172C18.9991 3.2168 18.7315 3.52564 18.3524 3.52564C17.9511 3.50353 17.7059 3.2168 17.7059 2.84172ZM12.1098 1.73861C11.4855 1.73861 11.0395 2.17981 11.0395 2.84172C11.0395 3.50363 11.4854 3.94484 12.132 3.94484C12.4441 3.94484 12.7563 3.8566 13.0016 3.6581L12.7786 3.32715C12.6002 3.45951 12.3773 3.54775 12.1544 3.54775C11.8645 3.54775 11.5746 3.41539 11.5077 3.04022H13.0908V2.86383C13.1131 2.17981 12.7118 1.73861 12.1098 1.73861ZM12.1098 2.13569C12.3995 2.13569 12.6003 2.31227 12.6448 2.64323H11.5301C11.5746 2.3564 11.7753 2.13569 12.1098 2.13569ZM23.7257 2.84172V0.944336H23.2575V2.04745C23.1014 1.84896 22.8785 1.73861 22.5886 1.73861C21.9866 1.73861 21.5184 2.20192 21.5184 2.84172C21.5184 3.48152 21.9866 3.94484 22.5886 3.94484C22.9008 3.94484 23.1237 3.83459 23.2575 3.63599V3.90072H23.7257V2.84172ZM22.009 2.84172C22.009 2.46665 22.2541 2.1578 22.6555 2.1578C23.0346 2.1578 23.3021 2.44464 23.3021 2.84172C23.3021 3.2168 23.0346 3.52564 22.6555 3.52564C22.2541 3.50353 22.009 3.2168 22.009 2.84172ZM6.35748 2.84172V1.78273H5.88928V2.04745C5.73318 1.84896 5.51025 1.73861 5.22039 1.73861C4.61843 1.73861 4.15023 2.20192 4.15023 2.84172C4.15023 3.48152 4.61843 3.94484 5.22039 3.94484C5.53259 3.94484 5.75552 3.83459 5.88928 3.63599V3.90072H6.35748V2.84172ZM4.61843 2.84172C4.61843 2.46665 4.8637 2.1578 5.26498 2.1578C5.64401 2.1578 5.91162 2.44464 5.91162 2.84172C5.91162 3.2168 5.64401 3.52564 5.26498 3.52564C4.8637 3.50353 4.61843 3.2168 4.61843 2.84172Z" fill="#151618"/>
</svg>
